<mxfile host="Electron" agent="Mozilla/5.0 (Macintosh; Intel Mac OS X 10_15_7) AppleWebKit/537.36 (KHTML, like Gecko) draw.io/26.2.15 Chrome/134.0.6998.205 Electron/35.2.1 Safari/537.36" version="26.2.15">
  <diagram name="Page-1" id="iMrRSlWTZIHHhobOd-VD">
    <mxGraphModel dx="1662" dy="1030" grid="0" gridSize="10" guides="0" tooltips="1" connect="1" arrows="1" fold="1" page="1" pageScale="1" pageWidth="1100" pageHeight="850" math="0" shadow="0">
      <root>
        <mxCell id="0" />
        <mxCell id="1" parent="0" />
        <mxCell id="cxIvMu1ag05t6aEy4AKa-124" value="Frontend Service&lt;div&gt;(Typescript / Svelte)&lt;/div&gt;" style="rounded=0;whiteSpace=wrap;html=1;verticalAlign=top;" vertex="1" parent="1">
          <mxGeometry x="928" y="139" width="160" height="470" as="geometry" />
        </mxCell>
        <mxCell id="cxIvMu1ag05t6aEy4AKa-88" value="Backend Service (Rust)" style="rounded=0;whiteSpace=wrap;html=1;verticalAlign=top;" vertex="1" parent="1">
          <mxGeometry x="328" y="139" width="550" height="590" as="geometry" />
        </mxCell>
        <mxCell id="cxIvMu1ag05t6aEy4AKa-64" value="local storage" style="rounded=0;whiteSpace=wrap;html=1;verticalAlign=top;" vertex="1" parent="1">
          <mxGeometry x="78" y="139" width="195" height="320" as="geometry" />
        </mxCell>
        <mxCell id="cxIvMu1ag05t6aEy4AKa-36" value="detection / classification" style="rounded=0;whiteSpace=wrap;html=1;verticalAlign=top;" vertex="1" parent="1">
          <mxGeometry x="468" y="439" width="360" height="270" as="geometry" />
        </mxCell>
        <mxCell id="cxIvMu1ag05t6aEy4AKa-30" value="ort (onnxruntime)" style="rounded=0;whiteSpace=wrap;html=1;verticalAlign=top;" vertex="1" parent="1">
          <mxGeometry x="493" y="469" width="170" height="220" as="geometry" />
        </mxCell>
        <mxCell id="cxIvMu1ag05t6aEy4AKa-25" value="feature definition&lt;div&gt;(efficinet)&lt;/div&gt;" style="rounded=0;whiteSpace=wrap;html=1;" vertex="1" parent="1">
          <mxGeometry x="518" y="509" width="120" height="40" as="geometry" />
        </mxCell>
        <mxCell id="cxIvMu1ag05t6aEy4AKa-26" value="aggregation&lt;div&gt;(fpn)&lt;/div&gt;" style="rounded=0;whiteSpace=wrap;html=1;" vertex="1" parent="1">
          <mxGeometry x="518" y="569" width="120" height="40" as="geometry" />
        </mxCell>
        <mxCell id="cxIvMu1ag05t6aEy4AKa-27" value="object detection&lt;div&gt;(yolo)&lt;/div&gt;" style="rounded=0;whiteSpace=wrap;html=1;" vertex="1" parent="1">
          <mxGeometry x="518" y="629" width="120" height="40" as="geometry" />
        </mxCell>
        <mxCell id="cxIvMu1ag05t6aEy4AKa-28" value="" style="endArrow=classic;html=1;rounded=0;exitX=0.5;exitY=1;exitDx=0;exitDy=0;entryX=0.5;entryY=0;entryDx=0;entryDy=0;" edge="1" parent="1" source="cxIvMu1ag05t6aEy4AKa-25" target="cxIvMu1ag05t6aEy4AKa-26">
          <mxGeometry width="50" height="50" relative="1" as="geometry">
            <mxPoint x="558" y="569" as="sourcePoint" />
            <mxPoint x="608" y="519" as="targetPoint" />
          </mxGeometry>
        </mxCell>
        <mxCell id="cxIvMu1ag05t6aEy4AKa-29" value="" style="endArrow=classic;html=1;rounded=0;exitX=0.5;exitY=1;exitDx=0;exitDy=0;" edge="1" parent="1" source="cxIvMu1ag05t6aEy4AKa-26" target="cxIvMu1ag05t6aEy4AKa-27">
          <mxGeometry width="50" height="50" relative="1" as="geometry">
            <mxPoint x="577.74" y="659" as="sourcePoint" />
            <mxPoint x="738" y="669" as="targetPoint" />
          </mxGeometry>
        </mxCell>
        <mxCell id="cxIvMu1ag05t6aEy4AKa-31" value="image preprocessor" style="rounded=0;whiteSpace=wrap;html=1;" vertex="1" parent="1">
          <mxGeometry x="688" y="509" width="120" height="40" as="geometry" />
        </mxCell>
        <mxCell id="cxIvMu1ag05t6aEy4AKa-32" value="post processing" style="rounded=0;whiteSpace=wrap;html=1;" vertex="1" parent="1">
          <mxGeometry x="688" y="629" width="120" height="40" as="geometry" />
        </mxCell>
        <mxCell id="cxIvMu1ag05t6aEy4AKa-37" value="core Tauri plugins" style="rounded=0;whiteSpace=wrap;html=1;verticalAlign=top;" vertex="1" parent="1">
          <mxGeometry x="368" y="179" width="460" height="130" as="geometry" />
        </mxCell>
        <mxCell id="cxIvMu1ag05t6aEy4AKa-40" value="" style="endArrow=classic;html=1;rounded=0;entryX=1;entryY=0.5;entryDx=0;entryDy=0;exitX=0;exitY=0.5;exitDx=0;exitDy=0;" edge="1" parent="1" source="cxIvMu1ag05t6aEy4AKa-31" target="cxIvMu1ag05t6aEy4AKa-25">
          <mxGeometry width="50" height="50" relative="1" as="geometry">
            <mxPoint x="668" y="549" as="sourcePoint" />
            <mxPoint x="718" y="499" as="targetPoint" />
          </mxGeometry>
        </mxCell>
        <mxCell id="cxIvMu1ag05t6aEy4AKa-41" value="" style="endArrow=classic;html=1;rounded=0;entryX=0;entryY=0.5;entryDx=0;entryDy=0;exitX=1;exitY=0.5;exitDx=0;exitDy=0;" edge="1" parent="1" source="cxIvMu1ag05t6aEy4AKa-27" target="cxIvMu1ag05t6aEy4AKa-32">
          <mxGeometry width="50" height="50" relative="1" as="geometry">
            <mxPoint x="668" y="549" as="sourcePoint" />
            <mxPoint x="718" y="499" as="targetPoint" />
          </mxGeometry>
        </mxCell>
        <mxCell id="cxIvMu1ag05t6aEy4AKa-42" value="os info&lt;div&gt;(os)&lt;/div&gt;" style="rounded=0;whiteSpace=wrap;html=1;" vertex="1" parent="1">
          <mxGeometry x="378" y="209" width="100" height="40" as="geometry" />
        </mxCell>
        <mxCell id="cxIvMu1ag05t6aEy4AKa-43" value="sqlite db&lt;div&gt;(sql)&lt;/div&gt;" style="rounded=0;whiteSpace=wrap;html=1;" vertex="1" parent="1">
          <mxGeometry x="378" y="259" width="100" height="40" as="geometry" />
        </mxCell>
        <mxCell id="cxIvMu1ag05t6aEy4AKa-44" value="persist key-value&lt;div&gt;(store)&lt;/div&gt;" style="rounded=0;whiteSpace=wrap;html=1;" vertex="1" parent="1">
          <mxGeometry x="488" y="209" width="100" height="40" as="geometry" />
        </mxCell>
        <mxCell id="cxIvMu1ag05t6aEy4AKa-45" value="access rest api&lt;div&gt;(http)&lt;/div&gt;" style="rounded=0;whiteSpace=wrap;html=1;" vertex="1" parent="1">
          <mxGeometry x="488" y="259" width="100" height="40" as="geometry" />
        </mxCell>
        <mxCell id="cxIvMu1ag05t6aEy4AKa-46" value="launch app&lt;div&gt;(opener)&lt;/div&gt;" style="rounded=0;whiteSpace=wrap;html=1;" vertex="1" parent="1">
          <mxGeometry x="598" y="209" width="100" height="40" as="geometry" />
        </mxCell>
        <mxCell id="cxIvMu1ag05t6aEy4AKa-47" value="notifications&lt;div&gt;(notification)&lt;/div&gt;" style="rounded=0;whiteSpace=wrap;html=1;" vertex="1" parent="1">
          <mxGeometry x="598" y="259" width="100" height="40" as="geometry" />
        </mxCell>
        <mxCell id="cxIvMu1ag05t6aEy4AKa-48" value="file system&lt;div&gt;(fs)&lt;/div&gt;" style="rounded=0;whiteSpace=wrap;html=1;" vertex="1" parent="1">
          <mxGeometry x="708" y="209" width="100" height="40" as="geometry" />
        </mxCell>
        <mxCell id="cxIvMu1ag05t6aEy4AKa-49" value="native os dialogs&lt;div&gt;(dialog)&lt;/div&gt;" style="rounded=0;whiteSpace=wrap;html=1;" vertex="1" parent="1">
          <mxGeometry x="708" y="259" width="100" height="40" as="geometry" />
        </mxCell>
        <mxCell id="cxIvMu1ag05t6aEy4AKa-50" value="cuda /&amp;nbsp;&lt;div&gt;metal&lt;/div&gt;" style="rounded=0;whiteSpace=wrap;html=1;" vertex="1" parent="1">
          <mxGeometry x="368" y="469" width="70" height="40" as="geometry" />
        </mxCell>
        <mxCell id="cxIvMu1ag05t6aEy4AKa-51" value="" style="endArrow=classic;html=1;rounded=0;exitX=-0.001;exitY=0.186;exitDx=0;exitDy=0;exitPerimeter=0;entryX=1;entryY=0.5;entryDx=0;entryDy=0;" edge="1" parent="1" source="cxIvMu1ag05t6aEy4AKa-36" target="cxIvMu1ag05t6aEy4AKa-50">
          <mxGeometry width="50" height="50" relative="1" as="geometry">
            <mxPoint x="568" y="649" as="sourcePoint" />
            <mxPoint x="618" y="599" as="targetPoint" />
          </mxGeometry>
        </mxCell>
        <mxCell id="cxIvMu1ag05t6aEy4AKa-52" value="sqlite" style="shape=cylinder3;whiteSpace=wrap;html=1;boundedLbl=1;backgroundOutline=1;size=15;" vertex="1" parent="1">
          <mxGeometry x="108" y="169" width="55" height="70" as="geometry" />
        </mxCell>
        <mxCell id="cxIvMu1ag05t6aEy4AKa-57" value="photo&amp;nbsp;&lt;div&gt;library&lt;/div&gt;" style="sketch=0;pointerEvents=1;shadow=0;dashed=0;html=1;strokeColor=none;fillColor=#505050;labelPosition=center;verticalLabelPosition=bottom;verticalAlign=top;outlineConnect=0;align=center;shape=mxgraph.office.concepts.folder;" vertex="1" parent="1">
          <mxGeometry x="193" y="264" width="55" height="45" as="geometry" />
        </mxCell>
        <mxCell id="cxIvMu1ag05t6aEy4AKa-60" value="google&lt;div&gt;drive&lt;/div&gt;" style="sketch=0;pointerEvents=1;shadow=0;dashed=0;html=1;strokeColor=none;fillColor=#505050;labelPosition=center;verticalLabelPosition=bottom;verticalAlign=top;outlineConnect=0;align=center;shape=mxgraph.office.concepts.folder;" vertex="1" parent="1">
          <mxGeometry x="108" y="366" width="55" height="45" as="geometry" />
        </mxCell>
        <mxCell id="cxIvMu1ag05t6aEy4AKa-63" value="icloud&lt;div&gt;drive&lt;/div&gt;" style="sketch=0;pointerEvents=1;shadow=0;dashed=0;html=1;strokeColor=none;fillColor=#505050;labelPosition=center;verticalLabelPosition=bottom;verticalAlign=top;outlineConnect=0;align=center;shape=mxgraph.office.concepts.folder;" vertex="1" parent="1">
          <mxGeometry x="108" y="264" width="55" height="45" as="geometry" />
        </mxCell>
        <mxCell id="cxIvMu1ag05t6aEy4AKa-66" value="store" style="shape=cylinder3;whiteSpace=wrap;html=1;boundedLbl=1;backgroundOutline=1;size=15;" vertex="1" parent="1">
          <mxGeometry x="188" y="169" width="55" height="70" as="geometry" />
        </mxCell>
        <mxCell id="cxIvMu1ag05t6aEy4AKa-68" value="API" style="endArrow=classic;startArrow=classic;html=1;rounded=0;entryX=1;entryY=0.201;entryDx=0;entryDy=0;entryPerimeter=0;" edge="1" parent="1" target="cxIvMu1ag05t6aEy4AKa-64">
          <mxGeometry width="50" height="50" relative="1" as="geometry">
            <mxPoint x="328" y="203" as="sourcePoint" />
            <mxPoint x="318" y="204" as="targetPoint" />
          </mxGeometry>
        </mxCell>
        <mxCell id="cxIvMu1ag05t6aEy4AKa-79" value="backend services" style="rounded=0;whiteSpace=wrap;html=1;verticalAlign=top;" vertex="1" parent="1">
          <mxGeometry x="368" y="329" width="460" height="80" as="geometry" />
        </mxCell>
        <mxCell id="cxIvMu1ag05t6aEy4AKa-80" value="model&amp;nbsp;&lt;div&gt;manager&lt;/div&gt;" style="rounded=0;whiteSpace=wrap;html=1;" vertex="1" parent="1">
          <mxGeometry x="378" y="359" width="100" height="40" as="geometry" />
        </mxCell>
        <mxCell id="cxIvMu1ag05t6aEy4AKa-82" value="history browser" style="rounded=0;whiteSpace=wrap;html=1;" vertex="1" parent="1">
          <mxGeometry x="488" y="359" width="100" height="40" as="geometry" />
        </mxCell>
        <mxCell id="cxIvMu1ag05t6aEy4AKa-84" value="integrations&lt;div&gt;manager&lt;/div&gt;" style="rounded=0;whiteSpace=wrap;html=1;" vertex="1" parent="1">
          <mxGeometry x="598" y="359" width="100" height="40" as="geometry" />
        </mxCell>
        <mxCell id="cxIvMu1ag05t6aEy4AKa-86" value="user settings" style="rounded=0;whiteSpace=wrap;html=1;" vertex="1" parent="1">
          <mxGeometry x="708" y="359" width="100" height="40" as="geometry" />
        </mxCell>
        <mxCell id="cxIvMu1ag05t6aEy4AKa-91" value="Web service" style="sketch=0;pointerEvents=1;shadow=0;dashed=0;html=1;strokeColor=none;fillColor=#505050;labelPosition=center;verticalLabelPosition=bottom;verticalAlign=top;outlineConnect=0;align=center;shape=mxgraph.office.concepts.globe_internet;" vertex="1" parent="1">
          <mxGeometry x="138.55" y="660" width="49" height="49" as="geometry" />
        </mxCell>
        <mxCell id="cxIvMu1ag05t6aEy4AKa-101" value="Web application" style="sketch=0;pointerEvents=1;shadow=0;dashed=0;html=1;strokeColor=none;fillColor=#505050;labelPosition=center;verticalLabelPosition=bottom;verticalAlign=top;outlineConnect=0;align=center;shape=mxgraph.office.concepts.globe_internet;" vertex="1" parent="1">
          <mxGeometry x="138" y="560" width="49" height="49" as="geometry" />
        </mxCell>
        <mxCell id="cxIvMu1ag05t6aEy4AKa-104" value="" style="shape=flexArrow;endArrow=none;startArrow=none;html=1;rounded=0;startFill=0;" edge="1" parent="1">
          <mxGeometry width="100" height="100" relative="1" as="geometry">
            <mxPoint x="266" y="729" as="sourcePoint" />
            <mxPoint x="266" y="549" as="targetPoint" />
          </mxGeometry>
        </mxCell>
        <mxCell id="cxIvMu1ag05t6aEy4AKa-105" value="HTTP" style="endArrow=classic;startArrow=classic;html=1;rounded=0;entryX=0.001;entryY=0.691;entryDx=0;entryDy=0;entryPerimeter=0;" edge="1" parent="1">
          <mxGeometry x="0.7053" y="-11" width="50" height="50" relative="1" as="geometry">
            <mxPoint x="195" y="580" as="sourcePoint" />
            <mxPoint x="315.5500000000002" y="577.69" as="targetPoint" />
            <mxPoint as="offset" />
          </mxGeometry>
        </mxCell>
        <mxCell id="cxIvMu1ag05t6aEy4AKa-106" value="REST" style="endArrow=classic;startArrow=classic;html=1;rounded=0;entryX=0.001;entryY=0.691;entryDx=0;entryDy=0;entryPerimeter=0;" edge="1" parent="1">
          <mxGeometry x="0.7058" y="-15" width="50" height="50" relative="1" as="geometry">
            <mxPoint x="194.55" y="685.5" as="sourcePoint" />
            <mxPoint x="315.55" y="683.5" as="targetPoint" />
            <mxPoint as="offset" />
          </mxGeometry>
        </mxCell>
        <mxCell id="cxIvMu1ag05t6aEy4AKa-110" value="apple" style="sketch=0;pointerEvents=1;shadow=0;dashed=0;html=1;strokeColor=none;fillColor=#505050;labelPosition=center;verticalLabelPosition=bottom;verticalAlign=top;outlineConnect=0;align=center;shape=mxgraph.office.concepts.globe_internet;" vertex="1" parent="1">
          <mxGeometry x="6" y="262" width="49" height="49" as="geometry" />
        </mxCell>
        <mxCell id="cxIvMu1ag05t6aEy4AKa-111" value="google" style="sketch=0;pointerEvents=1;shadow=0;dashed=0;html=1;strokeColor=none;fillColor=#505050;labelPosition=center;verticalLabelPosition=bottom;verticalAlign=top;outlineConnect=0;align=center;shape=mxgraph.office.concepts.globe_internet;" vertex="1" parent="1">
          <mxGeometry x="8" y="364" width="49" height="49" as="geometry" />
        </mxCell>
        <mxCell id="cxIvMu1ag05t6aEy4AKa-112" value="sync" style="endArrow=classic;startArrow=classic;html=1;rounded=0;" edge="1" parent="1" source="cxIvMu1ag05t6aEy4AKa-110" target="cxIvMu1ag05t6aEy4AKa-63">
          <mxGeometry width="50" height="50" relative="1" as="geometry">
            <mxPoint x="658" y="529" as="sourcePoint" />
            <mxPoint x="113" y="409" as="targetPoint" />
          </mxGeometry>
        </mxCell>
        <mxCell id="cxIvMu1ag05t6aEy4AKa-113" value="sync" style="endArrow=classic;startArrow=classic;html=1;rounded=0;" edge="1" parent="1" source="cxIvMu1ag05t6aEy4AKa-111" target="cxIvMu1ag05t6aEy4AKa-60">
          <mxGeometry width="50" height="50" relative="1" as="geometry">
            <mxPoint x="658" y="529" as="sourcePoint" />
            <mxPoint x="708" y="479" as="targetPoint" />
          </mxGeometry>
        </mxCell>
        <mxCell id="cxIvMu1ag05t6aEy4AKa-114" value="local&lt;div&gt;application&lt;/div&gt;" style="rounded=0;whiteSpace=wrap;html=1;" vertex="1" parent="1">
          <mxGeometry x="178.5" y="479" width="94.5" height="40" as="geometry" />
        </mxCell>
        <mxCell id="cxIvMu1ag05t6aEy4AKa-115" value="API" style="endArrow=classic;startArrow=classic;html=1;rounded=0;exitX=1;exitY=0.5;exitDx=0;exitDy=0;" edge="1" parent="1" source="cxIvMu1ag05t6aEy4AKa-114">
          <mxGeometry width="50" height="50" relative="1" as="geometry">
            <mxPoint x="658" y="529" as="sourcePoint" />
            <mxPoint x="328" y="499" as="targetPoint" />
          </mxGeometry>
        </mxCell>
        <mxCell id="cxIvMu1ag05t6aEy4AKa-116" value="app navigation" style="rounded=0;whiteSpace=wrap;html=1;" vertex="1" parent="1">
          <mxGeometry x="958" y="189" width="100" height="40" as="geometry" />
        </mxCell>
        <mxCell id="cxIvMu1ag05t6aEy4AKa-117" value="history browser" style="rounded=0;whiteSpace=wrap;html=1;" vertex="1" parent="1">
          <mxGeometry x="958" y="244" width="100" height="40" as="geometry" />
        </mxCell>
        <mxCell id="cxIvMu1ag05t6aEy4AKa-118" value="image preview" style="rounded=0;whiteSpace=wrap;html=1;" vertex="1" parent="1">
          <mxGeometry x="958" y="299" width="100" height="40" as="geometry" />
        </mxCell>
        <mxCell id="cxIvMu1ag05t6aEy4AKa-119" value="notification&lt;div&gt;manager&lt;/div&gt;" style="rounded=0;whiteSpace=wrap;html=1;" vertex="1" parent="1">
          <mxGeometry x="958" y="399" width="100" height="40" as="geometry" />
        </mxCell>
        <mxCell id="cxIvMu1ag05t6aEy4AKa-120" value="settings editor" style="rounded=0;whiteSpace=wrap;html=1;" vertex="1" parent="1">
          <mxGeometry x="958" y="449" width="100" height="40" as="geometry" />
        </mxCell>
        <mxCell id="cxIvMu1ag05t6aEy4AKa-121" value="model browser" style="rounded=0;whiteSpace=wrap;html=1;" vertex="1" parent="1">
          <mxGeometry x="958" y="499" width="100" height="40" as="geometry" />
        </mxCell>
        <mxCell id="cxIvMu1ag05t6aEy4AKa-122" value="results viewer" style="rounded=0;whiteSpace=wrap;html=1;" vertex="1" parent="1">
          <mxGeometry x="958" y="349" width="100" height="40" as="geometry" />
        </mxCell>
        <mxCell id="cxIvMu1ag05t6aEy4AKa-123" value="folder browser" style="rounded=0;whiteSpace=wrap;html=1;" vertex="1" parent="1">
          <mxGeometry x="958" y="549" width="100" height="40" as="geometry" />
        </mxCell>
        <mxCell id="cxIvMu1ag05t6aEy4AKa-125" value="IPC" style="endArrow=classic;startArrow=classic;html=1;rounded=0;entryX=-0.005;entryY=0.127;entryDx=0;entryDy=0;entryPerimeter=0;exitX=1;exitY=0.103;exitDx=0;exitDy=0;exitPerimeter=0;" edge="1" parent="1" source="cxIvMu1ag05t6aEy4AKa-88" target="cxIvMu1ag05t6aEy4AKa-124">
          <mxGeometry width="50" height="50" relative="1" as="geometry">
            <mxPoint x="658" y="539" as="sourcePoint" />
            <mxPoint x="708" y="489" as="targetPoint" />
          </mxGeometry>
        </mxCell>
        <mxCell id="cxIvMu1ag05t6aEy4AKa-128" value="** note&lt;div&gt;- Backend, Frontend, local storage and applications are on the same device&lt;/div&gt;&lt;div&gt;- Android, iOS, Mac, Windows, and Linux are supported&lt;/div&gt;&lt;div&gt;&lt;br&gt;&lt;/div&gt;&lt;div&gt;&lt;br&gt;&lt;/div&gt;" style="text;html=1;align=left;verticalAlign=middle;whiteSpace=wrap;rounded=0;" vertex="1" parent="1">
          <mxGeometry x="928" y="637" width="160" height="95" as="geometry" />
        </mxCell>
      </root>
    </mxGraphModel>
  </diagram>
</mxfile>
